<?xml version="1.0" encoding="utf-8"?>
<!-- Generator: Adobe Illustrator 25.0.0, SVG Export Plug-In . SVG Version: 6.00 Build 0)  -->
<svg version="1.1" id="图层_1" xmlns="http://www.w3.org/2000/svg" xmlns:xlink="http://www.w3.org/1999/xlink" x="0px" y="0px"
	 viewBox="0 0 30 30" style="enable-background:new 0 0 30 30;" xml:space="preserve">
<style type="text/css">
	.st0{fill:none;}
	.st1{fill:#D6E6FF;}
	.st2{fill:#3182FF;}
</style>
<rect x="-7.4" y="7.9" class="st0" width="12.8" height="12.8"/>
<circle class="st1" cx="15" cy="15" r="15"/>
<path class="st2" d="M21.7,18.9c0.3,0.2,0.6,0.3,0.9,0.4c-2.3,4.2-7.7,5.7-11.9,3.4c-0.5-0.3-0.9-0.6-1.4-1c1.8-0.3,3.5-1,5-2.1
	c0.2,0.1,0.4,0.2,0.6,0.2c0.4,0,0.8-0.2,1.1-0.5c0.5,0,1.1,0.1,1.6,0.1C19,19.4,20.4,19.2,21.7,18.9z"/>
<path class="st2" d="M8.7,16.9c1.6,0.9,3.3,1.6,5.1,2c0,0,0,0,0.1,0.1c-1.6,1-3.3,1.7-5.2,2c-0.1,0-0.1-0.1-0.1-0.1
	c0-0.5-0.1-1-0.1-1.5C8.5,18.5,8.6,17.7,8.7,16.9L8.7,16.9z"/>
<path class="st2" d="M6.2,15.2c0.5,0.5,1.1,0.9,1.6,1.2c-0.2,1-0.3,2-0.3,3v0.2C6.8,18.3,6.3,16.8,6.2,15.2L6.2,15.2z"/>
<path class="st2" d="M18,16.3c0.8,0.7,1.6,1.4,2.5,1.9c-1,0.2-1.9,0.3-2.9,0.3c-0.4,0-0.9,0-1.3,0c0-0.1,0-0.2,0-0.3
	C16.9,17.6,17.5,17,18,16.3z"/>
<path class="st2" d="M13.9,8.7c0.5,2.6,1.7,5,3.5,6.9c-0.5,0.6-1,1.2-1.6,1.8c-0.2-0.2-0.5-0.3-0.8-0.3c-0.6,0-1.1,0.3-1.2,0.9
	c-1.7-0.4-3.4-1.1-4.9-2c0.4-1.5,1-2.9,1.9-4.1c0.1,0,0.2,0,0.3,0c0.7,0,1.3-0.5,1.3-1.3c0,0,0,0,0-0.1c0-0.2,0-0.4-0.1-0.5
	C12.8,9.6,13.4,9.1,13.9,8.7L13.9,8.7z"/>
<path class="st2" d="M20.7,8.3c1.9,1.7,3.1,4.1,3.1,6.7c0,0.8-0.1,1.7-0.4,2.5c-0.5,0.2-1,0.4-1.6,0.5c-1.2-0.6-2.4-1.4-3.3-2.4
	c0.5-0.7,0.9-1.5,1.2-2.3h0.1c0.7,0,1.3-0.5,1.3-1.3c0,0,0,0,0-0.1c0-0.5-0.3-1-0.7-1.2C20.6,10,20.7,9.2,20.7,8.3z"/>
<path class="st2" d="M13.8,6.3c0,0.5,0.1,0.9,0.1,1.4c-0.7,0.5-1.4,1.1-2.1,1.7c-0.2-0.1-0.4-0.2-0.6-0.2c-0.7,0-1.3,0.5-1.3,1.3
	c0,0,0,0,0,0.1c0,0.3,0.1,0.6,0.3,0.8c-0.9,1.2-1.5,2.6-1.9,4.1c-0.6-0.4-1.2-0.9-1.8-1.4C6.8,10.1,9.8,7,13.8,6.3z"/>
<path class="st2" d="M18,6.8c0.7,0.2,1.3,0.5,1.9,0.9V8c0,0.9-0.1,1.8-0.3,2.7c-0.6,0.1-1,0.7-1,1.3c0,0.4,0.1,0.7,0.4,0.9
	c-0.3,0.7-0.6,1.4-1.1,2.1c-1.7-1.9-2.8-4.2-3.1-6.7C15.8,7.6,16.9,7.1,18,6.8z"/>
<path class="st2" d="M15,6.2c0.5,0,1,0,1.5,0.1c-0.6,0.3-1.2,0.5-1.9,0.8c0-0.3,0-0.6,0-0.9C14.7,6.3,14.9,6.3,15,6.2L15,6.2z"/>
</svg>
